<!-- Ícone base para conversão em diferentes tamanhos -->
<svg xmlns="http://www.w3.org/2000/svg" width="512" height="512" viewBox="0 0 512 512">
  <!-- Fundo -->
  <rect width="512" height="512" fill="#2563eb" rx="64"/>
  
  <!-- Container principal -->
  <rect x="64" y="96" width="384" height="320" fill="white" rx="24"/>
  
  <!-- Caixa/produto -->
  <rect x="120" y="152" width="80" height="80" fill="#2563eb" rx="8"/>
  <rect x="128" y="160" width="64" height="64" fill="#3b82f6" rx="4"/>
  
  <!-- Segundo produto -->
  <rect x="240" y="152" width="80" height="80" fill="#2563eb" rx="8"/>
  <rect x="248" y="160" width="64" height="64" fill="#3b82f6" rx="4"/>
  
  <!-- Terceiro produto -->
  <rect x="360" y="152" width="80" height="80" fill="#2563eb" rx="8"/>
  <rect x="368" y="160" width="64" height="64" fill="#3b82f6" rx="4"/>
  
  <!-- Gráfico/chart -->
  <rect x="120" y="280" width="272" height="4" fill="#e5e7eb"/>
  <rect x="120" y="270" width="60" height="14" fill="#10b981"/>
  <rect x="200" y="250" width="60" height="34" fill="#f59e0b"/>
  <rect x="280" y="260" width="60" height="24" fill="#ef4444"/>
  
  <!-- Texto simulado -->
  <rect x="120" y="320" width="120" height="8" fill="#d1d5db" rx="4"/>
  <rect x="120" y="340" width="180" height="8" fill="#d1d5db" rx="4"/>
  <rect x="120" y="360" width="100" height="8" fill="#d1d5db" rx="4"/>
</svg>
